<?xml version="1.0" standalone="no"?>
<!DOCTYPE svg PUBLIC "-//W3C//DTD SVG 20010904//EN"
 "http://www.w3.org/TR/2001/REC-SVG-20010904/DTD/svg10.dtd">
<svg version="1.0" xmlns="http://www.w3.org/2000/svg"
 width="400.000000pt" height="458.000000pt" viewBox="0 0 400.000000 458.000000"
 preserveAspectRatio="xMidYMid meet">

<g transform="translate(0.000000,458.000000) scale(0.100000,-0.100000)"
fill="#000000" stroke="none">
<path d="M1740 3854 c-376 -45 -699 -188 -933 -414 -152 -145 -249 -297 -303
-475 -26 -84 -28 -102 -28 -275 -1 -149 3 -199 18 -255 51 -192 111 -283 330
-500 183 -182 224 -239 259 -353 19 -62 21 -93 22 -407 0 -369 -3 -398 -56
-511 -27 -58 -60 -95 -119 -136 -24 -16 7 -17 573 -17 392 -1 597 2 597 9 0 6
-6 10 -13 10 -27 0 -87 64 -116 123 -66 136 -66 130 -66 787 0 663 -4 626 68
671 69 43 162 7 372 -146 318 -231 425 -294 533 -315 120 -22 186 23 247 171
127 309 171 411 239 558 42 90 75 165 73 168 -3 2 -31 -12 -63 -31 -95 -56
-160 -71 -304 -70 -102 0 -150 6 -260 32 -274 63 -423 68 -534 18 -128 -57
-263 -180 -339 -307 l-38 -64 3 465 c2 256 7 473 12 483 13 27 38 21 169 -39
240 -109 390 -161 551 -189 69 -12 278 -6 368 10 232 41 417 153 481 293 21
45 22 62 25 380 2 270 1 332 -10 332 -8 0 -22 -16 -32 -35 -29 -54 -109 -123
-184 -158 -61 -29 -78 -32 -182 -35 -156 -5 -261 14 -494 92 -218 73 -286 92
-406 112 -83 15 -391 26 -460 18z m-30 -678 c52 -13 113 -31 134 -39 l40 -14
-115 -59 c-310 -162 -550 -354 -625 -501 l-29 -58 -5 -360 c-3 -198 -9 -366
-13 -372 -18 -28 -49 -8 -153 100 -156 160 -222 267 -264 432 -28 107 -31 275
-6 365 66 241 262 433 516 505 151 42 361 43 520 1z"/>
</g>
</svg>
